<svg width="428.2970000000001" height="456.84900000000005" xmlns="http://www.w3.org/2000/svg">

 <g>
  <title>background</title>
  <rect fill="none" id="canvas_background" height="402" width="582" y="-1" x="-1"/>
 </g>
 <g>
  <title>Layer 1</title>
  <path fill="#ffffff" id="svg_2" d="m253.997696,223.607143c-0.4,-1.087 -0.801,-2.174 -1.209,-3.258l-0.256,-0.682c-1.846,-4.911 -3.59,-9.549 -5.069,-14.279c-0.922,-2.948 -1.724,-5.943 -2.572,-9.113c-0.583,-2.176 -1.166,-4.353 -1.788,-6.518c-0.887,-3.088 -1.851,-6.145 -2.783,-9.1c-0.706,-2.241 -1.413,-4.482 -2.085,-6.734c-0.475,-1.589 -0.932,-3.185 -1.39,-4.783c-1.065,-3.719 -2.168,-7.565 -3.498,-11.409c-0.052,-0.149 -0.106,-0.296 -0.165,-0.443c-2.305,-5.76 -4.944,-11.093 -8.069,-16.302c-2.766,-4.609 -8.678,-6.207 -13.387,-3.621c-3.407,1.87 -5.304,5.446 -5.185,9.101c-0.231,0.631 -0.458,1.376 -0.62,2.224c-2.123,5.315 -4.703,10.642 -7.379,16.076c-1.836,3.728 -3.813,7.359 -5.906,11.203c-1.082,1.987 -2.163,3.973 -3.221,5.966l-1.307,2.459c-2.651,4.984 -5.393,10.138 -7.952,15.315c-2.753,5.566 -5.909,12.071 -8.522,18.836c-2.282,5.908 -4.165,12.41 -5.926,20.464c-0.647,2.957 0.081,6.048 1.979,8.406c1.898,2.358 4.762,3.729 7.79,3.729c0.509,0 1.268,0.075 2.072,0.154c1.191,0.117 2.541,0.25 4.032,0.25c0.447,0 0.893,-0.03 1.335,-0.09c1.138,-0.153 2.23,-0.502 3.234,-1.017c3.057,-0.226 6.201,-0.262 9.477,-0.299c1.017,-0.012 2.032,-0.023 3.045,-0.041c3.264,-0.051 6.564,0.091 10.06,0.244c2.132,0.094 4.336,0.191 6.56,0.24c3.947,0.091 7.819,-0.043 11.565,-0.169c1.95,-0.065 3.903,-0.132 5.859,-0.166c6.904,-0.118 12.646,-0.503 18.07,-1.21c3.181,-0.414 5.97,-2.329 7.499,-5.149c1.528,-2.819 1.612,-6.201 0.225,-9.093c-1.686,-3.515 -3.06,-7.244 -4.513,-11.191zm-21.623,6.649c-2.065,0.035 -4.129,0.104 -6.189,0.174c-3.631,0.122 -7.061,0.238 -10.446,0.163c-2.005,-0.045 -4.006,-0.133 -6.124,-0.227c-3.077,-0.136 -6.242,-0.275 -9.486,-0.275c-0.596,0 -1.195,0.005 -1.796,0.015c-0.976,0.017 -1.953,0.028 -2.932,0.039c-2.202,0.025 -4.438,0.051 -6.714,0.135c0.513,-1.578 1.046,-3.08 1.605,-4.527c2.312,-5.984 5.234,-12.004 7.793,-17.178c2.429,-4.913 5.099,-9.934 7.682,-14.789l1.315,-2.475c1.025,-1.933 2.073,-3.855 3.12,-5.78c2.097,-3.851 4.265,-7.833 6.282,-11.928c0.176,-0.357 0.352,-0.715 0.526,-1.072c0.202,0.699 0.404,1.404 0.608,2.118c0.479,1.668 0.956,3.334 1.45,4.991c0.702,2.352 1.439,4.692 2.178,7.032c0.935,2.965 1.818,5.766 2.634,8.607c0.59,2.049 1.14,4.108 1.691,6.167c0.864,3.228 1.758,6.565 2.803,9.909c1.648,5.271 3.575,10.395 5.438,15.349l0.256,0.68c0.351,0.935 0.696,1.87 1.041,2.807c-0.889,0.027 -1.799,0.049 -2.735,0.065z"/>
  <path fill="#fcfcf9" id="svg_3" d="m429.364696,88.778143c-0.033,-1.813 -0.067,-3.63 -0.067,-5.464c0,-4.616 -3.159,-8.632 -7.646,-9.719c-3.323,-0.805 -6.576,-1.853 -10.021,-2.962c-1.766,-0.569 -3.536,-1.139 -5.329,-1.682c-1.922,-0.582 -3.851,-1.133 -5.778,-1.683c-3.463,-0.988 -6.732,-1.921 -9.895,-3.023c-3.458,-1.205 -6.849,-2.506 -10.438,-3.884c-1.68,-0.645 -3.359,-1.29 -5.042,-1.922c-2.575,-0.968 -5.156,-1.863 -7.653,-2.729c-2.804,-0.972 -5.453,-1.891 -8.07,-2.897c-5.14,-1.975 -10.454,-4.018 -15.764,-5.999c-2.095,-0.781 -4.219,-1.717 -6.469,-2.708c-2.905,-1.28 -5.909,-2.603 -9.156,-3.727c-3.626,-1.366 -7.089,-2.951 -10.753,-4.627c-3.856,-1.764 -7.844,-3.588 -12.174,-5.212c-1.122,-0.421 -2.312,-0.637 -3.511,-0.637c-0.688,0 -1.32,0.054 -1.887,0.13c-0.686,-0.302 -1.371,-0.604 -2.056,-0.906c-4.073,-1.797 -8.286,-3.655 -12.546,-5.358c-3.61,-1.443 -7.239,-2.771 -10.749,-4.056c-2.257,-0.826 -4.511,-1.651 -6.752,-2.503c-2.681,-1.021 -5.326,-2.131 -8.126,-3.307c-2.929,-1.23 -5.957,-2.502 -9.064,-3.676c-5.246,-1.981 -10.499,-4.026 -15.851,-6.118c-1.433,-0.953 -2.895,-1.581 -4.151,-2.121c-0.479,-0.206 -0.981,-0.416 -1.47,-0.66c-0.813,-0.407 -1.677,-0.7 -2.564,-0.872c-2.754,-1.843 -6.292,-2.222 -9.396,-0.944c-0.667,0.274 -1.686,0.788 -2.714,1.666c-3.977,1.513 -8.131,2.924 -12.385,4.207c-5.844,1.762 -11.031,3.259 -15.855,4.575c-0.16,0.043 -0.318,0.091 -0.476,0.142c-2.905,0.95 -5.811,1.861 -8.712,2.771c-2.824,0.886 -5.643,1.77 -8.453,2.685c-2.748,0.896 -5.501,1.708 -8.417,2.567c-2.88,0.85 -5.858,1.728 -8.822,2.692c-2.993,0.974 -5.954,2.014 -8.816,3.02c-2.839,0.998 -5.521,1.939 -8.246,2.828c-2.582,0.842 -5.263,1.556 -8.101,2.311c-3.007,0.8 -6.116,1.628 -9.25,2.654c-3.223,1.055 -6.247,2.298 -9.172,3.5c-2.676,1.1 -5.203,2.139 -7.7,2.961c-2.563,0.845 -5.223,1.569 -8.039,2.335c-3.022,0.822 -6.146,1.672 -9.301,2.721c-2.61,0.868 -5.232,1.708 -7.857,2.55c-3.043,0.976 -6.19,1.984 -9.312,3.035c-3.116,1.048 -6.133,2.22 -9.051,3.353c-2.724,1.058 -5.297,2.057 -7.892,2.942c-2.266,0.772 -4.539,1.537 -6.816,2.303c-3.341,1.124 -6.69,2.25 -10.039,3.408c-2.133,0.603 -4.471,1.181 -6.939,1.791c-5.233,1.294 -11.165,2.761 -16.997,4.948c-4.483,1.681 -7.145,6.304 -6.35,11.025c0.479,2.844 1.072,5.698 1.646,8.458c0.685,3.299 1.333,6.415 1.776,9.405c0.331,2.226 0.682,4.449 1.033,6.672c0.597,3.78 1.161,7.351 1.633,10.971c0.383,2.932 0.602,5.939 0.834,9.123c0.205,2.814 0.417,5.725 0.755,8.674l0.314,2.737c0.568,4.935 1.155,10.038 1.658,15.03c0.252,2.492 0.531,4.981 0.81,7.47c0.382,3.4 0.776,6.917 1.08,10.329c0.263,2.938 0.392,5.915 0.53,9.066c0.125,2.866 0.254,5.83 0.493,8.829c0.316,3.955 0.593,7.912 0.87,11.869c0.141,2.007 0.281,4.014 0.427,6.021c0.23,3.179 0.615,6.27 0.988,9.259c0.374,2.997 0.726,5.828 0.914,8.61c0.193,2.863 0.274,5.746 0.36,8.799c0.084,2.979 0.171,6.06 0.371,9.172c0.208,3.237 0.574,6.388 0.929,9.434c0.344,2.952 0.669,5.741 0.842,8.491c0.205,3.241 0.421,6.482 0.638,9.724c0.184,2.752 0.368,5.505 0.545,8.258c0.179,2.8 0.317,5.603 0.456,8.406c0.155,3.136 0.315,6.378 0.532,9.607c0.178,2.647 0.207,5.367 0.238,8.247c0.034,3.174 0.069,6.455 0.313,9.824c0.435,6.01 0.904,12.022 1.381,18.033c0.272,3.415 0.73,6.675 1.173,9.828c0.389,2.77 0.757,5.385 0.989,8c0.318,3.577 2.53,6.71 5.794,8.206c4.627,2.12 8.985,4.418 13.599,6.851c1.06,0.559 2.12,1.118 3.187,1.677c4.175,2.184 8.206,4.52 12.474,6.992c1.383,0.801 2.767,1.603 4.154,2.398c2.002,1.148 4.017,2.278 6.036,3.411c3.536,1.984 7.192,4.035 10.694,6.146c2.928,1.765 5.81,3.555 8.861,5.45c2.54,1.577 5.099,3.167 7.696,4.747c0.237,0.145 0.479,0.278 0.727,0.402c2.005,1.003 3.943,1.371 5.358,1.641c0.063,0.012 0.129,0.024 0.198,0.037c2.069,2.071 4.318,3.208 5.814,3.964c0.228,0.115 0.507,0.256 0.726,0.373c0.222,0.274 0.458,0.536 0.707,0.786c2.17,2.17 4.553,3.039 6.129,3.614c0.161,0.059 0.313,0.114 0.457,0.168c4.028,3.092 7.807,5.286 11.471,7.413c1.026,0.596 2.058,1.194 3.103,1.819c1.169,0.765 2.272,1.372 3.169,1.865c0.668,0.368 1.572,0.866 1.864,1.108c0.355,0.524 0.759,1.014 1.207,1.462c2.814,2.813 6.14,3.346 7.97,3.622c1.725,1.227 3.385,2.303 5.004,3.353c1.888,1.225 3.671,2.381 5.398,3.676c0.148,0.111 0.299,0.218 0.453,0.32c4.476,2.984 8.94,5.498 13.257,7.93c1.813,1.021 3.622,2.039 5.415,3.085c5.239,3.056 10.75,6.527 17.346,10.924c0.619,0.413 1.282,0.755 1.977,1.021c0.224,0.141 0.6,0.401 0.887,0.601c1.578,1.095 5.334,3.7 9.962,3.699c2.067,0 4.309,-0.52 6.608,-1.926c2.616,-1.408 5.187,-2.866 7.675,-4.277c2.91,-1.65 5.658,-3.21 8.458,-4.687c2.511,-1.324 5.211,-2.497 8.07,-3.737c2.943,-1.278 5.987,-2.6 9.027,-4.182c3.056,-1.591 5.898,-3.328 8.647,-5.008c2.649,-1.619 5.151,-3.148 7.664,-4.441c2.258,-1.162 4.511,-2.331 6.763,-3.499c3.322,-1.724 6.643,-3.446 9.974,-5.146c2.737,-1.396 5.502,-2.703 8.429,-4.088c2.789,-1.32 5.673,-2.685 8.535,-4.134c2.98,-1.511 5.973,-3.002 8.967,-4.493c2.632,-1.311 5.266,-2.622 7.893,-3.948c2.777,-1.401 5.544,-2.829 8.313,-4.259c2.819,-1.455 5.641,-2.912 8.479,-4.342c2.556,-1.287 5.228,-2.46 8.057,-3.701c2.967,-1.302 6.035,-2.648 9.096,-4.192c3.084,-1.555 5.997,-3.249 8.814,-4.888c2.66,-1.548 5.172,-3.009 7.713,-4.295c2.504,-1.267 5.147,-2.415 7.945,-3.631c3.015,-1.309 6.132,-2.663 9.187,-4.218c0.293,-0.146 0.587,-0.298 0.883,-0.45c0.56,-0.289 1.404,-0.726 1.669,-0.765c4.849,0 8.999,-3.479 9.846,-8.253c0.472,-2.655 0.98,-5.326 1.489,-7.998c0.672,-3.526 1.366,-7.173 1.976,-10.792c0.585,-3.478 1.01,-6.928 1.42,-10.264c0.364,-2.966 0.709,-5.769 1.153,-8.546c0.446,-2.79 0.992,-5.568 1.57,-8.511c0.646,-3.287 1.313,-6.686 1.843,-10.157c0.528,-3.465 0.973,-6.941 1.401,-10.303c0.357,-2.799 0.728,-5.693 1.135,-8.487c0.538,-3.684 1.037,-7.374 1.535,-11.064c0.347,-2.569 0.694,-5.14 1.055,-7.708c0.4,-2.843 0.857,-5.768 1.299,-8.596c0.517,-3.303 1.05,-6.718 1.516,-10.138c0.371,-2.735 0.759,-5.47 1.146,-8.206c0.497,-3.512 0.995,-7.025 1.462,-10.547c0.44,-3.335 0.783,-6.668 1.114,-9.891c0.316,-3.082 0.615,-5.993 0.994,-8.916c0.383,-2.953 0.827,-5.87 1.299,-8.958c0.484,-3.176 0.984,-6.46 1.407,-9.766c0.416,-3.253 0.759,-6.518 1.09,-9.674c0.313,-2.989 0.639,-6.08 1.017,-9.063c0.344,-2.497 0.67,-4.999 0.996,-7.5c0.424,-3.25 0.847,-6.5 1.313,-9.744c0.496,-3.458 0.914,-6.926 1.318,-10.28c0.289,-2.4 0.578,-4.8 0.896,-7.196c0.307,-2.313 0.696,-4.631 1.108,-7.086c0.568,-3.385 1.156,-6.886 1.536,-10.503c0.513,-4.887 1.153,-11.337 1.554,-17.892c0.263,-4.329 0.187,-8.475 0.114,-12.485zm-20.077,11.271c-0.377,6.166 -0.989,12.335 -1.481,17.02c-0.315,3.002 -0.827,6.052 -1.369,9.279c-0.423,2.515 -0.859,5.115 -1.211,7.77c-0.328,2.474 -0.627,4.952 -0.926,7.432c-0.391,3.244 -0.795,6.598 -1.259,9.832c-0.478,3.329 -0.913,6.665 -1.348,10c-0.322,2.471 -0.645,4.941 -0.984,7.409c-0.005,0.036 -0.01,0.071 -0.014,0.106c-0.408,3.214 -0.746,6.433 -1.073,9.545c-0.335,3.188 -0.65,6.198 -1.037,9.226c-0.393,3.064 -0.875,6.228 -1.341,9.288c-0.467,3.062 -0.95,6.228 -1.361,9.402c-0.413,3.187 -0.739,6.367 -1.056,9.443c-0.331,3.222 -0.644,6.265 -1.046,9.309c-0.459,3.46 -0.948,6.915 -1.438,10.368c-0.393,2.773 -0.785,5.545 -1.162,8.316c-0.438,3.222 -0.956,6.537 -1.457,9.743c-0.454,2.903 -0.923,5.905 -1.344,8.901c-0.366,2.604 -0.718,5.21 -1.07,7.814c-0.488,3.62 -0.977,7.238 -1.505,10.851c-0.434,2.973 -0.814,5.958 -1.184,8.845c-0.414,3.243 -0.842,6.597 -1.334,9.822c-0.465,3.049 -1.063,6.093 -1.696,9.315c-0.586,2.983 -1.191,6.068 -1.693,9.206c-0.502,3.136 -0.886,6.252 -1.256,9.265c-0.401,3.264 -0.78,6.347 -1.292,9.386c-0.573,3.406 -1.248,6.946 -1.899,10.369c-0.122,0.642 -0.244,1.284 -0.366,1.925c-0.837,0.375 -1.561,0.748 -2.169,1.063l-0.711,0.363c-2.576,1.311 -5.283,2.486 -8.148,3.731c-2.94,1.277 -5.979,2.598 -9.008,4.129c-3.063,1.55 -5.948,3.229 -8.739,4.853c-2.681,1.56 -5.213,3.032 -7.762,4.317c-2.585,1.304 -5.278,2.485 -8.129,3.736c-2.943,1.292 -5.987,2.628 -9.018,4.154c-2.897,1.459 -5.777,2.946 -8.655,4.432c-2.714,1.4 -5.426,2.801 -8.149,4.175c-2.596,1.311 -5.197,2.606 -7.799,3.902c-3.036,1.512 -6.07,3.023 -9.09,4.554c-2.619,1.326 -5.257,2.574 -8.049,3.896c-2.93,1.386 -5.959,2.819 -8.961,4.351c-3.372,1.72 -6.734,3.464 -10.099,5.209c-2.233,1.158 -4.468,2.317 -6.704,3.47c-3.163,1.627 -6.101,3.423 -8.941,5.158c-2.574,1.573 -5.006,3.06 -7.451,4.333c-2.415,1.256 -5.01,2.383 -7.758,3.575c-3.075,1.335 -6.256,2.716 -9.438,4.395c-3.069,1.619 -6.081,3.327 -8.993,4.979c-1.51,0.857 -2.972,1.686 -4.424,2.494c-0.748,-0.479 -1.6,-0.975 -2.56,-1.411c-6.571,-4.364 -12.16,-7.872 -17.526,-11.002c-1.88,-1.097 -3.775,-2.165 -5.677,-3.236c-4.101,-2.31 -7.978,-4.493 -11.761,-7c-2.187,-1.625 -4.267,-2.975 -6.281,-4.28c-1.888,-1.225 -3.671,-2.381 -5.398,-3.676c-0.48,-0.36 -0.991,-0.676 -1.528,-0.944c-1.55,-0.774 -3.034,-1.186 -4.246,-1.433c-2.114,-2.031 -4.336,-3.256 -6.106,-4.23c-0.75,-0.412 -1.397,-0.77 -1.945,-1.134c-0.132,-0.088 -0.266,-0.173 -0.402,-0.255c-1.189,-0.714 -2.364,-1.396 -3.531,-2.073c-3.663,-2.126 -6.826,-3.963 -10.097,-6.579c-0.55,-0.44 -1.145,-0.82 -1.775,-1.136c-1.073,-0.536 -2.026,-0.909 -2.787,-1.191c-2.079,-2.095 -4.348,-3.241 -5.853,-4.002c-0.228,-0.115 -0.507,-0.256 -0.726,-0.373c-0.222,-0.274 -0.458,-0.536 -0.707,-0.786c-3.414,-3.413 -7.609,-4.211 -9.862,-4.64c-0.134,-0.025 -0.268,-0.049 -0.398,-0.073c-2.212,-1.353 -4.396,-2.71 -6.567,-4.059c-2.973,-1.846 -6.047,-3.756 -9.089,-5.589c-3.77,-2.272 -7.564,-4.4 -11.233,-6.46c-1.964,-1.102 -3.925,-2.201 -5.873,-3.318c-1.361,-0.781 -2.719,-1.567 -4.076,-2.354c-4.264,-2.471 -8.673,-5.025 -13.229,-7.408c-1.047,-0.548 -2.089,-1.098 -3.131,-1.647c-3.067,-1.617 -6.203,-3.271 -9.454,-4.883c-0.146,-1.104 -0.3,-2.191 -0.451,-3.266c-0.42,-2.991 -0.817,-5.817 -1.041,-8.631c-0.475,-5.963 -0.939,-11.928 -1.371,-17.89c-0.199,-2.756 -0.23,-5.593 -0.262,-8.597c-0.032,-3.029 -0.066,-6.162 -0.281,-9.373c-0.206,-3.053 -0.361,-6.205 -0.511,-9.253c-0.144,-2.9 -0.287,-5.801 -0.473,-8.699c-0.178,-2.771 -0.363,-5.543 -0.548,-8.313c-0.215,-3.217 -0.43,-6.434 -0.633,-9.647c-0.207,-3.278 -0.578,-6.466 -0.937,-9.549c-0.34,-2.92 -0.662,-5.679 -0.836,-8.397c-0.177,-2.756 -0.255,-5.525 -0.338,-8.458c-0.087,-3.109 -0.178,-6.324 -0.397,-9.576c-0.226,-3.35 -0.63,-6.599 -1.022,-9.741c-0.357,-2.863 -0.694,-5.568 -0.887,-8.232c-0.144,-1.991 -0.283,-3.981 -0.423,-5.971c-0.281,-4.023 -0.563,-8.045 -0.884,-12.063c-0.21,-2.638 -0.326,-5.295 -0.448,-8.108c-0.141,-3.237 -0.287,-6.583 -0.59,-9.973c-0.324,-3.637 -0.731,-7.27 -1.125,-10.782c-0.271,-2.415 -0.542,-4.83 -0.786,-7.247c-0.518,-5.131 -1.112,-10.305 -1.688,-15.308l-0.313,-2.729c-0.292,-2.539 -0.479,-5.119 -0.679,-7.85c-0.242,-3.323 -0.492,-6.759 -0.949,-10.256c-0.507,-3.886 -1.118,-7.759 -1.71,-11.504c-0.341,-2.162 -0.683,-4.325 -1.004,-6.489c-0.488,-3.29 -1.155,-6.569 -1.816,-9.756c2.254,-0.614 4.523,-1.175 6.758,-1.727c2.748,-0.679 5.343,-1.321 7.89,-2.049c0.177,-0.05 0.352,-0.106 0.525,-0.166c3.382,-1.171 6.765,-2.309 10.139,-3.444c2.303,-0.775 4.602,-1.548 6.895,-2.33c2.99,-1.02 5.88,-2.143 8.676,-3.228c2.833,-1.1 5.509,-2.139 8.191,-3.042c2.985,-1.004 6.062,-1.991 9.038,-2.944c2.695,-0.864 5.387,-1.727 8.065,-2.618c2.627,-0.874 5.352,-1.615 8.238,-2.4c2.943,-0.801 5.987,-1.629 9.052,-2.639c3.175,-1.047 6.157,-2.272 9.04,-3.457c2.709,-1.114 5.268,-2.165 7.793,-2.992c2.6,-0.851 5.305,-1.571 8.169,-2.334c2.976,-0.792 6.053,-1.611 9.159,-2.624c2.938,-0.958 5.854,-1.982 8.672,-2.973c2.755,-0.968 5.604,-1.969 8.377,-2.871c2.698,-0.878 5.414,-1.679 8.289,-2.527c2.921,-0.861 5.941,-1.752 8.955,-2.734c2.738,-0.892 5.488,-1.754 8.243,-2.618c2.897,-0.909 5.801,-1.819 8.703,-2.766c4.929,-1.347 10.209,-2.871 16.128,-4.656c4.673,-1.409 9.248,-2.961 13.639,-4.63c0.105,0.023 0.209,0.046 0.313,0.067c0.323,0.143 0.628,0.274 0.905,0.393c0.287,0.124 0.647,0.278 0.906,0.396c0.774,0.612 1.636,1.107 2.559,1.468c5.859,2.292 11.597,4.531 17.367,6.71c2.766,1.045 5.496,2.192 8.388,3.406c2.831,1.189 5.758,2.418 8.758,3.56c2.32,0.883 4.653,1.737 6.989,2.592c3.375,1.235 6.865,2.513 10.202,3.846c3.932,1.572 7.8,3.278 11.896,5.084c1.615,0.713 3.233,1.427 4.857,2.133c1.259,0.547 2.615,0.829 3.987,0.829c0.779,0 1.488,-0.069 2.108,-0.161c2.802,1.141 5.552,2.398 8.426,3.713c3.856,1.764 7.844,3.588 12.174,5.212c0.086,0.032 0.173,0.063 0.261,0.094c2.506,0.861 5.045,1.98 7.733,3.164c2.411,1.062 4.903,2.16 7.539,3.143c5.218,1.947 10.485,3.971 15.579,5.929c2.928,1.125 5.859,2.142 8.694,3.125c2.485,0.862 4.833,1.676 7.164,2.552c1.642,0.617 3.278,1.246 4.916,1.875c3.575,1.372 7.272,2.791 11.023,4.098c3.704,1.291 7.407,2.348 10.989,3.37c1.823,0.52 3.648,1.04 5.467,1.591c1.682,0.509 3.34,1.044 4.996,1.578c1.282,0.413 2.58,0.831 3.899,1.242c0.052,3.138 0.07,6.149 -0.111,9.134z"/>
  <path fill="#ffffff" id="svg_4" d="m353.275696,320.349143c-1.759,-2.789 -3.419,-5.424 -4.969,-8.109c-1.542,-2.672 -2.976,-5.416 -4.492,-8.322c-1.161,-2.225 -2.362,-4.525 -3.626,-6.808c-1.742,-3.15 -3.456,-6.456 -5.112,-9.652c-0.956,-1.844 -1.912,-3.688 -2.882,-5.522c-1.33,-2.515 -2.736,-4.916 -4.097,-7.237c-1.562,-2.665 -3.036,-5.183 -4.313,-7.716c-0.727,-1.444 -1.459,-2.886 -2.19,-4.328c-1.834,-3.61 -3.73,-7.345 -5.476,-11.005c-1.189,-2.492 -2.226,-5.17 -3.323,-8.006c-0.986,-2.551 -2.008,-5.189 -3.203,-7.846c-2.247,-4.989 -4.483,-10.119 -6.837,-15.681c-1.136,-2.685 -2.381,-5.224 -3.585,-7.679c-1.338,-2.727 -2.602,-5.302 -3.611,-7.859c-0.023,-0.058 -0.047,-0.116 -0.071,-0.174l-0.235,-0.566c-2.332,-5.591 -4.742,-11.373 -7.312,-16.87c-2.852,-6.104 -4.886,-10.846 -6.507,-15.18c-0.094,-0.564 -0.205,-1.033 -0.289,-1.38c-0.078,-0.909 -0.279,-1.804 -0.601,-2.66c-1.198,-3.195 -2.619,-6.302 -3.994,-9.307c-2.271,-4.966 -4.417,-9.656 -5.472,-14.402c-0.135,-0.606 -0.325,-1.199 -0.57,-1.77c-1.459,-3.405 -3.124,-6.335 -4.593,-8.92c-1.691,-2.976 -3.166,-5.57 -4.039,-8.326c-1.123,-6.792 -3.948,-12.031 -6.452,-16.673c-0.596,-1.104 -1.162,-2.154 -1.7,-3.209c-2.165,-5.868 -4.722,-12.604 -7.788,-19.086c-1.782,-3.765 -3.77,-7.337 -5.692,-10.792c-1.411,-2.536 -2.745,-4.932 -3.99,-7.378c-1.05,-2.063 -2.123,-4.113 -3.199,-6.172c-1.969,-3.764 -4.005,-7.657 -5.861,-11.575c-0.631,-1.333 -1.538,-2.488 -2.64,-3.404c-1.944,-2.479 -4.337,-3.451 -6.215,-3.808c-3.365,-0.645 -6.859,0.453 -9.334,2.93c-0.958,0.958 -1.711,2.1 -2.214,3.357c-2.167,5.417 -4.488,11.16 -6.953,16.591c-1.208,2.66 -2.246,5.297 -3.251,7.848c-1.234,3.133 -2.4,6.093 -3.757,8.799c-1.326,2.644 -2.947,5.272 -4.664,8.055c-1.498,2.429 -3.047,4.941 -4.492,7.619c-1.373,2.544 -2.641,5.104 -3.868,7.58c-1.5,3.028 -2.918,5.888 -4.473,8.642c-1.644,2.911 -3.338,5.765 -5.131,8.788c-1.384,2.332 -2.772,4.673 -4.137,7.04c-1.601,2.776 -3.108,5.602 -4.565,8.334c-1.404,2.633 -2.732,5.125 -4.147,7.594c-2.005,3.057 -3.525,6.159 -4.846,9.896c-1.89,3.218 -3.755,6.447 -5.615,9.667l-2.584,4.468c-2.261,3.898 -4.496,7.848 -6.658,11.667l-1.942,3.429c-1.201,2.118 -2.484,4.285 -3.724,6.381c-1.66,2.805 -3.376,5.706 -5.009,8.667c-1.182,2.145 -2.428,4.253 -3.747,6.486c-1.642,2.779 -3.339,5.652 -4.929,8.64c-1.634,3.071 -2.947,6.129 -4.217,9.086c-1.034,2.407 -2.01,4.679 -3.087,6.793c-1.076,2.114 -2.327,4.231 -3.651,6.474c-1.647,2.789 -3.351,5.673 -4.87,8.813l-0.119,0.245c-2.457,5.078 -4.998,10.33 -7.391,15.59c-1.499,3.295 -2.789,6.596 -4.036,9.788c-0.878,2.248 -1.708,4.371 -2.594,6.463c-0.849,2.002 -1.738,3.979 -2.681,6.072c-1.456,3.234 -2.961,6.579 -4.316,10.054c-2.464,6.316 -4.426,11.556 -6.174,16.488c-1.283,3.622 -2.361,7.273 -3.403,10.805c-0.603,2.043 -1.205,4.084 -1.844,6.102c-1.029,3.249 -0.333,6.798 1.848,9.417c2.18,2.62 5.546,3.946 8.926,3.525c4.791,-0.599 10.024,-1.016 15.552,-1.238c1.264,-0.051 2.531,-0.111 3.8,-0.172c4.12,-0.196 8.011,-0.382 11.775,-0.229c3.255,0.132 6.713,0.642 10.375,1.182c1.787,0.264 3.558,0.524 5.298,0.742c4.671,0.58 9.123,-2.173 10.679,-6.619c0.654,-1.869 1.302,-3.778 1.951,-5.696c1.056,-3.115 2.147,-6.337 3.256,-9.317c0.741,-1.992 1.404,-3.966 2.046,-5.874c1.016,-3.021 1.975,-5.873 3.127,-8.484c2.104,-4.769 4.623,-9.354 6.807,-13.208c1.518,-2.676 3.29,-5.241 5.343,-8.014c4.503,-0.134 8.786,-0.254 13.122,-0.231c3.41,0.018 6.825,0.195 10.441,0.385c2.487,0.13 5.058,0.264 7.64,0.342c6.148,0.188 12.163,0.38 18.156,0.667c3.652,0.176 7.404,0.418 11.033,0.653c2.392,0.154 4.785,0.31 7.183,0.448c3.139,0.182 6.266,0.271 9.29,0.358c3.123,0.09 6.073,0.175 9.035,0.353c2.74,0.163 5.51,0.38 8.188,0.589c0.708,0.055 1.422,0.111 2.141,0.166c1.292,4.504 3.104,8.721 5.012,12.951c2.458,5.453 5.484,11.233 9.524,18.192c1.056,1.819 2.137,3.601 3.208,5.365c2.253,3.714 4.382,7.221 6.013,10.688c1.33,2.824 3.901,4.866 6.954,5.521c7.891,1.69 15.301,2.577 22.656,2.712c1.297,0.024 2.559,0.036 3.79,0.036c6.753,0 12.596,-0.358 18.097,-1.104c1.568,0.03 3.154,0.161 4.822,0.299c3.842,0.319 8.199,0.678 13.234,-0.16c2.604,-0.435 4.93,-1.879 6.472,-4.021c2.508,-3.482 2.762,-7.868 0.612,-11.528c-1.337,-2.226 -2.715,-4.412 -4.047,-6.525zm-23.156,2.029c-5.64,0.806 -11.829,1.116 -19.46,0.977c-4.635,-0.085 -9.332,-0.541 -14.249,-1.386c-1.491,-2.722 -3.085,-5.347 -4.644,-7.915c-1.004,-1.655 -2.019,-3.326 -3.009,-5.03c-3.688,-6.353 -6.417,-11.555 -8.588,-16.369c-2.437,-5.406 -4.497,-10.285 -5.019,-15.242c-0.515,-4.885 -4.501,-8.673 -9.406,-8.938c-3.158,-0.171 -6.192,-0.407 -9.403,-0.658c-2.769,-0.216 -5.63,-0.439 -8.553,-0.614c-3.27,-0.195 -6.514,-0.289 -9.652,-0.379c-3.014,-0.087 -5.861,-0.169 -8.709,-0.334c-2.352,-0.136 -4.7,-0.288 -7.048,-0.44c-3.71,-0.239 -7.547,-0.488 -11.365,-0.671c-6.155,-0.296 -12.266,-0.49 -18.508,-0.681c-2.364,-0.072 -4.715,-0.194 -7.204,-0.324c-3.688,-0.193 -7.501,-0.393 -11.382,-0.412c-4.918,-0.026 -9.815,0.121 -14.549,0.262c-1.339,0.04 -2.682,0.08 -4.031,0.117c-3.019,0.081 -5.838,1.522 -7.673,3.921c-2.976,3.891 -6.678,8.732 -9.711,14.081c-2.43,4.287 -5.246,9.422 -7.707,14.997c-1.521,3.446 -2.673,6.873 -3.787,10.187c-0.619,1.842 -1.204,3.581 -1.834,5.274c-0.934,2.509 -1.824,5.082 -2.688,7.618c-3.023,-0.423 -6.126,-0.791 -9.319,-0.921c-4.642,-0.184 -9.163,0.029 -13.532,0.237c-1.218,0.058 -2.434,0.115 -3.651,0.164c-0.711,0.029 -1.418,0.061 -2.122,0.095c0.227,-0.687 0.459,-1.367 0.698,-2.042c1.676,-4.729 3.568,-9.781 5.955,-15.898c1.17,-3 2.507,-5.97 3.922,-9.114c0.945,-2.1 1.922,-4.271 2.857,-6.476c0.998,-2.354 1.918,-4.71 2.809,-6.99c1.202,-3.077 2.338,-5.984 3.611,-8.782c2.295,-5.046 4.784,-10.188 7.19,-15.162l0.119,-0.246c1.158,-2.394 2.58,-4.803 4.086,-7.353c1.422,-2.408 2.893,-4.897 4.252,-7.566c1.374,-2.696 2.527,-5.382 3.643,-7.979c1.159,-2.699 2.254,-5.249 3.497,-7.585c1.379,-2.593 2.891,-5.151 4.491,-7.86c1.335,-2.26 2.716,-4.597 4.042,-7.003c1.485,-2.695 3.05,-5.338 4.706,-8.138c1.286,-2.173 2.616,-4.421 3.908,-6.699l1.951,-3.445c2.136,-3.774 4.345,-7.677 6.554,-11.486l2.601,-4.497c2,-3.463 4.006,-6.935 6.044,-10.394c0.356,-0.605 0.648,-1.247 0.871,-1.914c0.871,-2.613 1.788,-4.545 3.065,-6.461c0.122,-0.182 0.237,-0.368 0.346,-0.557c1.634,-2.837 3.149,-5.679 4.614,-8.427c1.443,-2.707 2.807,-5.264 4.242,-7.752c1.324,-2.295 2.671,-4.565 4.013,-6.827c1.768,-2.979 3.596,-6.061 5.345,-9.157c1.821,-3.225 3.427,-6.464 4.979,-9.597c1.205,-2.43 2.342,-4.726 3.55,-6.965c1.169,-2.167 2.501,-4.328 3.912,-6.615c1.868,-3.028 3.799,-6.16 5.519,-9.589c1.759,-3.507 3.146,-7.029 4.488,-10.435c0.789,-2.004 1.543,-3.917 2.344,-5.761c0.299,0.58 0.597,1.159 0.892,1.74c1.414,2.775 2.9,5.446 4.338,8.029c1.846,3.317 3.59,6.451 5.089,9.62c2.81,5.938 5.146,12.141 7.299,17.984c0.128,0.347 0.274,0.686 0.439,1.016c0.747,1.495 1.499,2.889 2.227,4.237c2.155,3.994 3.856,7.149 4.379,10.803c0.064,0.45 0.159,0.896 0.284,1.333c1.503,5.262 3.914,9.505 6.042,13.249c1.185,2.085 2.312,4.068 3.264,6.16c1.557,6.405 4.214,12.214 6.572,17.37c1.104,2.414 2.156,4.714 3.034,6.92c0.091,0.521 0.193,0.955 0.272,1.282c0.075,0.875 0.265,1.738 0.566,2.566c1.894,5.208 4.233,10.73 7.586,17.906c2.391,5.116 4.615,10.452 6.971,16.101l0.201,0.482c1.295,3.266 2.782,6.296 4.221,9.229c1.133,2.309 2.203,4.49 3.12,6.661c2.415,5.706 4.712,10.974 7.021,16.103c0.974,2.164 1.854,4.44 2.787,6.851c1.185,3.06 2.408,6.224 3.924,9.4c1.852,3.883 3.806,7.729 5.694,11.449c0.721,1.42 1.442,2.84 2.159,4.266c1.563,3.104 3.271,6.017 4.921,8.833c1.309,2.235 2.546,4.346 3.672,6.476c0.944,1.787 1.875,3.582 2.806,5.378c1.718,3.314 3.495,6.742 5.37,10.131c1.146,2.071 2.238,4.165 3.396,6.381c1.547,2.963 3.146,6.026 4.899,9.064c0.011,0.018 0.021,0.035 0.031,0.054c-0.301,0.011 -0.599,0.039 -0.897,0.082z"/>
 </g>
</svg>